<?xml version="1.0" encoding="UTF-8" standalone="no" ?>
<!DOCTYPE svg PUBLIC "-//W3C//DTD SVG 1.1//EN" "http://www.w3.org/Graphics/SVG/1.1/DTD/svg11.dtd">
<svg xmlns="http://www.w3.org/2000/svg" xmlns:xlink="http://www.w3.org/1999/xlink" version="1.1" width="1200" height="400" viewBox="60 280 1160 440" xml:space="preserve">
<desc>Created with Fabric.js 5.3.0</desc>
<defs>
</defs>
<g transform="matrix(1 0 0 1 640 512)" id="background-logo"  >
<rect style="stroke: none; stroke-width: 0; stroke-dasharray: none; stroke-linecap: butt; stroke-dashoffset: 0; stroke-linejoin: miter; stroke-miterlimit: 4; fill: rgb(255,255,255); fill-opacity: 0; fill-rule: nonzero; opacity: 1;"  paint-order="stroke"  x="-640" y="-512" rx="0" ry="0" width="1280" height="1024" />
</g>
<g transform="matrix(1.9211538461538462 0 0 1.9211538461538462 818.3550707175289 511.8317604921621)" id="text-logo"  >
<g style=""  paint-order="stroke"   >
		<g transform="matrix(1 0 0 1 0 0)" id="text-logo-path-0"  >
<path style="stroke: none; stroke-width: 0; stroke-dasharray: none; stroke-linecap: butt; stroke-dashoffset: 0; stroke-linejoin: miter; stroke-miterlimit: 4; fill: rgb(248,250,252); fill-rule: nonzero; opacity: 1;"  paint-order="stroke"  transform=" translate(-181.945, 26.04)" d="M 27.05 0.84 C 36.88 0.84 41.83 -3.61 41.83 -12.26 L 41.83 -29.4 L 24.61 -29.4 L 24.61 -19.24 L 30.32 -19.24 L 30.32 -11.26 C 30.32 -10.42 29.99 -10.08 29.23 -10.08 L 17.98 -10.08 C 17.22 -10.08 16.8 -10.42 16.8 -11.26 L 16.8 -40.82 C 16.8 -41.66 17.22 -42 17.98 -42 L 40.74 -42 L 40.74 -52.92 L 19.24 -52.92 C 9.41 -52.92 4.54 -48.47 4.54 -39.82 L 4.54 -12.26 C 4.54 -3.61 9.41 0.84 19.24 0.84 Z M 80.14 0 L 80.14 -18.65 L 88.28 -18.65 C 89.29 -18.65 89.29 -18.23 89.63 -17.3 L 95.34 0 L 107.44 0 L 102.4 -14.45 C 101.3 -17.39 99.96 -19.15 98.03 -20.33 C 102.9 -22.68 105.34 -27.38 105.34 -32.68 L 105.34 -38.98 C 105.34 -47.63 99.96 -52.67 90.13 -52.5 L 67.96 -52.08 L 67.96 0 Z M 91.9 -41.92 C 92.65 -41.92 92.99 -41.58 92.99 -40.74 L 92.99 -30.24 C 92.99 -29.4 92.65 -29.15 91.9 -29.15 L 80.14 -29.15 L 80.14 -41.92 Z M 144.14 0 L 144.14 -52.08 L 131.96 -52.08 L 131.96 0 Z M 201.43 -30.83 L 184.55 -30.83 L 184.55 -41.5 L 203.11 -41.5 L 203.11 -52.08 L 172.37 -52.08 L 172.37 0 L 184.55 0 L 184.55 -20.41 L 201.43 -20.41 Z M 255.02 -30.83 L 238.14 -30.83 L 238.14 -41.5 L 256.7 -41.5 L 256.7 -52.08 L 225.96 -52.08 L 225.96 0 L 238.14 0 L 238.14 -20.41 L 255.02 -20.41 Z M 291.73 0 L 291.73 -52.08 L 279.55 -52.08 L 279.55 0 Z M 350.78 0 L 359.35 0 L 359.35 -52.08 L 348.94 -52.08 L 348.94 -20.83 L 327.68 -52.08 L 319.2 -52.08 L 319.2 0 L 329.62 0 L 329.62 -31.25 Z" stroke-linecap="round" />
</g>
</g>
</g>
<g transform="matrix(1.4674159376541374 0 0 1.4674159376541374 260.7230646169881 511.2191245440333)" id="logo-logo"  >
<g style=""  paint-order="stroke"   >
		<g transform="matrix(0.8029876944022358 0 0 0.8029876944022358 0 0)"  >
<g style=""  paint-order="stroke"   >
		<g transform="matrix(1 0 0 1 0 0)"  >
<radialGradient id="SVGID_53276" gradientUnits="userSpaceOnUse" gradientTransform="matrix(1 0 0 1 -0.00000434166193485908 0)"  cx="127.02712532236896" cy="133.312805" r="127.02712532236896" fx="127.02712532236896" fy="133.312805">
<stop offset="20%" style="stop-color:rgb(96,165,250);stop-opacity: 1"/>
<stop offset="100%" style="stop-color:rgb(244,114,182);stop-opacity: 1"/>
</radialGradient>
<path style="stroke: none; stroke-width: 0; stroke-dasharray: none; stroke-linecap: butt; stroke-dashoffset: 0; stroke-linejoin: miter; stroke-miterlimit: 4; fill: url(#SVGID_53276); fill-rule: nonzero; opacity: 1;"  paint-order="stroke"  transform=" translate(-127.02712098070702, -133.312805)" d="M 192.10195 133.31287 C 192.10195 169.25269 162.96694 198.3877 127.02711999999998 198.3877 C 91.08729999999997 198.3877 61.95228999999998 169.25269 61.95228999999998 133.31286999999998 C 61.95228999999998 97.37304999999995 91.08729999999997 68.23791999999997 127.02711999999998 68.23791999999997 C 162.96694 68.23791999999997 192.10195 97.37292999999997 192.10195 133.31286999999998 Z M 127.02712 58.30518 C 131.85207 58.30518 135.76333 54.3938 135.76333 49.56897 C 135.76333 44.74414 131.85208 40.83264 127.02712 40.83264 C 122.20215999999999 40.83264 118.29091 44.74402 118.29091 49.56897 C 118.29091 54.39392 122.20228999999999 58.30518 127.02712 58.30518 Z M 127.02712 9.71924 C 129.71108 9.71924 131.88674 7.543579999999999 131.88674 4.85962 C 131.88674 2.1756600000000006 129.71108 0 127.02712 0 C 124.34315999999998 0 122.16749999999999 2.17566 122.16749999999999 4.85962 C 122.16749999999999 7.543579999999999 124.34315999999998 9.71924 127.02712 9.71924 Z M 95.37978 35.91223 C 99.96853 34.421260000000004 102.47988 29.492800000000003 100.98879 24.903930000000003 C 99.49781999999999 20.31518 94.56922999999999 17.80395 89.98048999999999 19.294920000000005 C 85.39173999999998 20.785890000000006 82.88050999999999 25.714480000000005 84.37147999999999 30.303340000000006 C 85.86245 34.891960000000005 90.79104 37.40319000000001 95.37978 35.91223000000001 Z M 82.93874 72.63037 C 86.84218 69.79431 87.70742 64.33093 84.87147999999999 60.42749 C 82.03553999999998 56.52405 76.57203999999999 55.65881 72.6686 58.494749999999996 C 68.76528 61.33081 67.8998 66.79419 70.73598 70.69763 C 73.57191999999999 74.60107 79.03529999999999 75.46643 82.93874 72.63037 Z M 54.38063 33.32361 C 56.55189 31.745970000000003 57.033339999999995 28.70691 55.45569999999999 26.53552 C 53.87819 24.36438 50.839119999999994 23.88293 48.66785999999999 25.46057 C 46.49646999999999 27.03808 46.01514999999999 30.07703 47.59265999999999 32.24841 C 49.17029999999999 34.4198 52.20935999999999 34.900999999999996 54.380619999999986 33.32361 Z M 31.97035 75.04871 C 35.87391 77.88477 41.337289999999996 77.01941 44.173230000000004 73.11597 C 47.00929000000001 69.21253 46.143930000000005 63.74915 42.240610000000004 60.91321000000001 C 38.337050000000005 58.07715 32.873670000000004 58.942510000000006 30.037730000000003 62.84583000000001 C 27.201670000000004 66.74939 28.067030000000003 72.21277 31.970350000000003 75.04871 Z M 50.08156 99.12585 C 45.492810000000006 97.63488 40.56423 100.14611 39.07314 104.73486 C 37.582170000000005 109.32361 40.09353 114.25232 44.68227 115.74328 C 49.27102 117.23425 54.199600000000004 114.72302 55.69057 110.13415 C 57.18154 105.5454 54.67031 100.61682 50.08156 99.12585 Z M 3.35927 98.24036 C 5.91176 99.06971 8.65322 97.67286 9.48256 95.12024 C 10.31203 92.56774999999999 8.91518 89.82629 6.362559999999999 88.99682999999999 C 3.810069999999999 88.16747999999998 1.0684899999999997 89.56432999999998 0.23914999999999953 92.11694999999999 C -0.5902000000000005 94.66944 0.8066499999999995 97.41102 3.3592699999999995 98.24035999999998 Z M 15.87782 142.04919 C 20.70277 142.04919 24.614150000000002 138.13781 24.614150000000002 133.31286 C 24.614150000000002 128.48791 20.70277 124.57653 15.877820000000002 124.57653 C 11.052870000000002 124.57653 7.141610000000002 128.48791 7.141610000000002 133.31286 C 7.141610000000002 138.13781 11.052990000000001 142.04919 15.877820000000002 142.04919 Z M 50.08156 167.49988 C 54.67031 166.00891 57.181540000000005 161.0802 55.69057 156.49146 C 54.199600000000004 151.90270999999998 49.271010000000004 149.39148 44.68227 150.88244999999998 C 40.093520000000005 152.37341999999998 37.582170000000005 157.30200999999997 39.07314 161.89074999999997 C 40.56423 166.47961999999995 45.49282 168.99084999999997 50.08156 167.49987999999996 Z M 3.35927 168.38538 C 0.8066599999999999 169.21473 -0.5901900000000002 171.95618 0.23914999999999997 174.50879 C 1.0685 177.06128 3.81007 178.45813 6.36256 177.62879 C 8.91517 176.79944 10.31202 174.05787 9.48256 171.50538 C 8.65321 168.95277000000002 5.911759999999999 167.55592000000001 3.3592699999999995 168.38538 Z M 42.24062 205.71252 C 46.14394 202.87658000000002 47.009299999999996 197.41308 44.17324 193.50964000000002 C 41.3373 189.60632 35.87392 188.74084000000002 31.97036 191.57702 C 28.06704 194.41296 27.20168 199.87634 30.03774 203.77978000000002 C 32.87368 207.68322 38.33706 208.54846 42.24062 205.71252 Z M 82.93874 193.99524 C 79.03529999999999 191.1593 73.57191999999999 192.02454 70.73598 195.9281 C 67.8998 199.83142 68.76528 205.2948 72.6686 208.13098 C 76.57204 210.96692 82.03554 210.10156 84.87147999999999 206.19812 C 87.70741999999998 202.29479999999998 86.84217999999998 196.8313 82.93874 193.99524 Z M 48.66786 241.16516 C 50.839119999999994 242.7428 53.87819 242.26135 55.4557 240.09008999999998 C 57.03334 237.91882999999999 56.55189 234.87975999999998 54.380630000000004 233.30212999999998 C 52.20937000000001 231.72462 49.170300000000005 232.20593999999997 47.592670000000005 234.37732999999997 C 46.01516000000001 236.54858999999996 46.496480000000005 239.58753999999996 48.66787000000001 241.16516999999996 Z M 89.98049 247.33069 C 94.56924000000001 248.82166 99.49782 246.31043 100.98879000000001 241.7218 C 102.47988000000001 237.13293 99.96853000000002 232.20434 95.37978000000001 230.71338 C 90.79103 229.22241 85.86245000000001 231.73364 84.37148 236.32239 C 82.88051 240.91126000000003 85.39174 245.83972 89.98049 247.33069 Z M 127.02712 208.32043 C 122.20228999999999 208.32043 118.29091 212.23181 118.29091 217.05676 C 118.29091 221.88171 122.20228999999999 225.79309 127.02712 225.79309 C 131.85195 225.79309 135.76333 221.88171 135.76333 217.05676 C 135.76333 212.23181 131.85208 208.32043 127.02712 208.32043 Z M 127.02712 256.90637 C 124.34316 256.90637 122.16749999999999 259.08214999999996 122.16749999999999 261.76599 C 122.16749999999999 264.44983 124.34315999999998 266.62561 127.02712 266.62561 C 129.71108 266.62561 131.88674 264.44995 131.88674 261.76599 C 131.88674 259.08203 129.71108 256.90637 127.02712 256.90637 Z M 164.07387 247.33069 C 168.66249 245.83972 171.17372 240.91126 169.68276 236.32239 C 168.19179 231.73364 163.26333 229.22241000000002 158.67446 230.71338 C 154.08571 232.20435 151.57448000000002 237.13294 153.06545 241.7218 C 154.55642 246.31042 159.48501 248.82165 164.07387 247.33069 Z M 181.38564 208.13098 C 185.28907999999998 205.29479999999998 186.15444 199.83141999999998 183.31838 195.9281 C 180.48232 192.02454 175.01894 191.1593 171.11561999999998 193.99524 C 167.21205999999998 196.8313 166.34681999999998 202.2948 169.18275999999997 206.19812 C 172.01881999999998 210.10155999999998 177.48219999999998 210.96692 181.38563999999997 208.13098 Z M 205.38637 241.16516 C 207.55776 239.58751999999998 208.03908 236.54858 206.46157 234.37732 C 204.88393 232.20593 201.84487 231.72460999999998 199.67361 233.30212 C 197.50235 234.87976 197.02089999999998 237.91882 198.59853999999999 240.09008 C 200.17604999999998 242.26134 203.21511999999998 242.74279 205.38637999999997 241.16515 Z M 222.08388 191.57703 C 218.18032 188.74085 212.71694 189.60633 209.881 193.50965000000002 C 207.04494 197.41309 207.9103 202.87659000000002 211.81374 205.71253000000002 C 215.71717999999998 208.54847 221.18055999999999 207.68323 224.0165 203.77979000000002 C 226.85256 199.87635000000003 225.9872 194.41297000000003 222.08388000000002 191.57703 Z M 214.9811 161.89075 C 216.47207 157.302 213.96084 152.37342 209.37197 150.88245 C 204.78322 149.39148 199.85464000000002 151.90271 198.36367 156.49146000000002 C 196.8727 161.08021000000002 199.38393000000002 166.00892000000002 203.97268000000003 167.49988000000002 C 208.56143000000003 168.99085000000002 213.49014000000003 166.47962 214.98110000000003 161.89075000000003 Z M 250.69508 168.38538 C 248.14247 167.55591 245.40100999999999 168.95276 244.57166999999998 171.50538 C 243.74231999999998 174.05787 245.13916999999998 176.79945 247.69167 177.62879 C 250.24427999999997 178.45814000000001 252.98574 177.06129 253.81508 174.50879 C 254.64443 171.95618000000002 253.2477 169.21472 250.69508 168.38538 Z M 229.44008 133.31287 C 229.44008 138.13782 233.35146 142.0492 238.17641 142.0492 C 243.00136 142.0492 246.91274 138.13782 246.91274 133.31287 C 246.91274 128.48792 243.00136 124.57654000000001 238.17641 124.57654000000001 C 233.35146 124.57654000000001 229.44008 128.48792 229.44008 133.31287 Z M 203.97267 99.12585 C 199.38392 100.61682 196.87269 105.54541 198.36365999999998 110.13415 C 199.85463 114.72302 204.78321999999997 117.23425 209.37195999999997 115.74328 C 213.96083 114.25231 216.47205999999997 109.3236 214.98108999999997 104.73486 C 213.49011999999996 100.14611 208.56140999999997 97.63488 203.97266999999997 99.12585 Z M 247.69167 88.99683 C 245.13917999999998 89.8263 243.74232999999998 92.56775 244.57166999999998 95.12024 C 245.40102 97.67285 248.14246999999997 99.0697 250.69508 98.24036 C 253.24768999999998 97.41100999999999 254.64442 94.66944 253.81508 92.11695 C 252.98573 89.56434 250.24428 88.16749 247.69167 88.99683 Z M 211.81374 60.91321 C 207.9103 63.74915 207.04494 69.21253 209.881 73.11597 C 212.71694 77.01941000000001 218.18032 77.88477 222.08388 75.04871 C 225.9872 72.21277 226.85255999999998 66.74939 224.0165 62.84583 C 221.18056 58.94251 215.71718 58.07715 211.81374 60.91321 Z M 171.11562 72.63037 C 175.01894000000001 75.46643 180.48232000000002 74.60106999999999 183.31838000000002 70.69763 C 186.15444000000002 66.79419 185.28908 61.33081 181.38564000000002 58.49475 C 177.48220000000003 55.65881 172.01882000000003 56.52405 169.18276000000003 60.427490000000006 C 166.34682000000004 64.33093000000001 167.21206000000004 69.79431000000001 171.11562000000004 72.63037 Z M 199.6736 33.32361 C 201.84485999999998 34.901 204.88393 34.4198 206.46156 32.24841 C 208.03906999999998 30.07702 207.55775 27.03808 205.38636 25.46057 C 203.2151 23.88293 200.17603 24.36438 198.59852 26.53552 C 197.02088 28.70691 197.50233 31.74597 199.67359000000002 33.32361 Z M 158.67446 35.91223 C 163.26333 37.4032 168.19179 34.89197 169.68276 30.303340000000002 C 171.17373 25.714470000000002 168.6625 20.785880000000002 164.07387 19.294920000000005 C 159.485 17.803950000000004 154.55641 20.315180000000005 153.06545 24.903930000000003 C 151.57448 29.492800000000003 154.08571 34.421260000000004 158.67446 35.91223 Z M 96.16359 55.28748 C 97.05824 58.04065 100.0154 59.54749 102.76868999999999 58.652840000000005 C 105.52185999999999 57.758190000000006 107.02869999999999 54.80116 106.13404999999999 52.04786000000001 C 105.23939999999999 49.294560000000004 102.28236999999999 47.787850000000006 99.52894999999998 48.682500000000005 C 96.77577999999998 49.57703000000001 95.26905999999998 52.534180000000006 96.16358999999999 55.28748 Z M 63.51747 87.17041 C 65.21913 84.82837 64.69997000000001 81.55029 62.35792 79.84875000000001 C 60.01576 78.14709 56.7378 78.66638 55.03626 81.00842000000002 C 53.3346 83.35046000000001 53.85376 86.62854000000002 56.19581 88.33008000000001 C 58.53797 90.03162 61.81593 89.51245000000002 63.51747 87.17041 Z M 43.28322 138.55457 C 46.17812 138.55457 48.52504 136.20777 48.52504 133.31287 C 48.52504 130.41797 46.17812 128.07105 43.28322 128.07105 C 40.38832 128.07105 38.0414 130.41785000000002 38.0414 133.31287 C 38.0414 136.20789 40.38832 138.55457 43.28322 138.55457 Z M 55.03627 185.61731 C 56.73781 187.95935 60.01576 188.47864 62.35793 186.77698 C 64.69997000000001 185.07532 65.21914000000001 181.79724000000002 63.517480000000006 179.45520000000002 C 61.815940000000005 177.11316000000002 58.53799000000001 176.59399000000002 56.195820000000005 178.29553 C 53.85378000000001 179.99719000000002 53.334610000000005 183.27527 55.03627 185.61731 Z M 106.13405 214.57776 C 107.0287 211.82459 105.52187 208.86743 102.76869 207.97278 C 100.01539000000001 207.07825 97.05824000000001 208.58508 96.16359 211.33826 C 95.26906 214.09143 96.77577 217.04871 99.52895 217.94324 C 102.28237 218.83777 105.23939999999999 217.33118 106.13405 214.57776 Z M 157.89064 211.33826 C 156.99598999999998 208.58508999999998 154.03896 207.07825 151.28565999999998 207.97278 C 148.53235999999998 208.86743 147.02564999999998 211.82459 147.92029999999997 214.57776 C 148.81482999999997 217.33118000000002 151.77197999999996 218.83777 154.52527999999998 217.94324 C 157.27845 217.04871 158.78528999999997 214.09143 157.89064 211.33826 Z M 190.53676 179.4552 C 188.83509999999998 181.79724 189.35439 185.07531999999998 191.69643 186.77697999999998 C 194.03847 188.47863999999998 197.31655 187.95934999999997 199.01809 185.61730999999997 C 200.71963 183.27526999999998 200.20059 179.99719 197.85842 178.29552999999999 C 195.51638 176.59399 192.23842 177.11316 190.53676 179.4552 Z M 210.77113 128.07104 C 207.87611 128.07104 205.52931 130.41784 205.52931 133.31286 C 205.52931 136.20788 207.87611 138.55456 210.77113 138.55456 C 213.66615 138.55456 216.01283 136.20776 216.01283 133.31286 C 216.01283 130.41796 213.66603 128.07104 210.77113 128.07104 Z M 199.01808 81.00842 C 197.31654 78.66638 194.03847 78.14709 191.69642 79.84875 C 189.35438 81.55028999999999 188.83508999999998 84.82835999999999 190.53674999999998 87.17040999999999 C 192.23841 89.51244999999999 195.51636 90.03161999999999 197.85841 88.33008 C 200.20057 86.62854 200.71962 83.35047 199.01808 81.00842 Z M 151.28566 58.65283 C 154.03896 59.54748 156.99599 58.04065 157.89064000000002 55.28747 C 158.78529000000003 52.534169999999996 157.27846000000002 49.57702 154.52528 48.68249 C 151.77198 47.78784 148.81483 49.29455 147.9203 52.047850000000004 C 147.02564999999998 54.80115000000001 148.53236 57.75818 151.28566 58.65283 Z M 127.02712 28.97791 C 130.79055 28.97791 133.84145 25.927010000000003 133.84145 22.163580000000003 C 133.84145 18.400150000000004 130.79055 15.349250000000003 127.02712000000001 15.349250000000003 C 123.26369000000003 15.349250000000003 120.21279000000001 18.400150000000004 120.21279000000001 22.163580000000003 C 120.21279000000001 25.927010000000003 123.26369000000001 28.97791 127.02712000000001 28.97791 Z M 56.18239 47.39661 C 58.39443 50.44129 62.655899999999995 51.11609 65.70058 48.90406 C 68.74526 46.69202 69.42018 42.430550000000004 67.20815 39.38587 C 64.99599 36.34119 60.73452 35.66627 57.689840000000004 37.878299999999996 C 54.645160000000004 40.09045999999999 53.97036000000001 44.351929999999996 56.182390000000005 47.396609999999995 Z M 23.42372 92.48499 C 19.844369999999998 91.32215 16.00014 93.28089 14.83705 96.86010999999999 C 13.674209999999999 100.43933 15.63295 104.28357 19.21217 105.44666 C 22.79139 106.6095 26.63563 104.65075999999999 27.798720000000003 101.07154 C 28.961560000000002 97.49231999999999 27.002820000000003 93.64808 23.423720000000003 92.48499 Z M 19.21217 161.17908 C 15.632950000000001 162.34204 13.67421 166.1864 14.837050000000001 169.76551 C 16.000140000000002 173.34486 19.84437 175.30360000000002 23.423720000000003 174.14063000000002 C 27.002820000000003 172.97767000000002 28.961560000000002 169.13343 27.798720000000003 165.55408000000003 C 26.635630000000003 161.97486000000004 22.791400000000003 160.01612000000003 19.21217 161.17908000000003 Z M 57.68984 228.74744 C 60.734519999999996 230.95935 64.99598999999999 230.28455000000002 67.20814999999999 227.23987000000002 C 69.42018999999999 224.19519000000003 68.74525999999999 219.93372000000002 65.70057999999999 217.72156 C 62.65589999999999 215.50952 58.394429999999986 216.18445 56.182389999999984 219.22913 C 53.97034999999998 222.27381 54.64515999999998 226.53528 57.68983999999998 228.74743999999998 Z M 127.02712 237.64783 C 123.26369 237.64783 120.21279 240.69861 120.21279 244.46204 C 120.21279 248.22547 123.26369 251.27637000000001 127.02712 251.27637000000001 C 130.79055 251.27637000000001 133.84145 248.22547 133.84145 244.46204 C 133.84145 240.69861 130.79055 237.64783 127.02712000000001 237.64783 Z M 196.3644 228.74744 C 199.40908 226.53528 200.084 222.27381000000003 197.87196999999998 219.22913 C 195.65980999999996 216.18445 191.39833999999996 215.50952999999998 188.35366 217.72156 C 185.30898 219.93372000000002 184.63405999999998 224.19519000000003 186.84609 227.23987 C 189.05825000000002 230.28455 193.31972000000002 230.95935 196.3644 228.74743999999998 Z M 234.84206 161.17908 C 231.26284 160.01612 227.4186 161.97486 226.25551000000002 165.55408 C 225.09267000000003 169.13343 227.05141 172.97766 230.63063000000002 174.14063 C 234.20985000000002 175.30358999999999 238.05409000000003 173.34484999999998 239.21718 169.76550999999998 C 240.38002 166.18640999999997 238.42128000000002 162.34204999999997 234.84206 161.17907999999997 Z M 234.84206 105.44666 C 238.42128 104.28357 240.38002 100.43933999999999 239.21718 96.86010999999999 C 238.05409 93.28088999999999 234.20986000000002 91.32215 230.63063000000002 92.48499 C 227.05141000000003 93.64808 225.09267000000003 97.49231 226.25551000000002 101.07154 C 227.41860000000003 104.65076 231.26283 106.6095 234.84206 105.44666 Z M 188.35365 48.90405 C 191.39833 51.11609 195.6598 50.44128 197.87196 47.3966 C 200.084 44.35192 199.40907 40.09045 196.36439000000001 37.87829 C 193.31971000000001 35.66625 189.05824 36.34118 186.84608000000003 39.38586 C 184.63404000000003 42.43054 185.30897000000002 46.69201 188.35365000000002 48.90405 Z" stroke-linecap="round" />
</g>
</g>
</g>
</g>
</g>
<g transform="matrix(1.9211538461538462 0 0 1.9211538461538462 261.1495607708342 511.5134068901872)" id="tagline-dd22e9d9-d437-48d2-9140-0f423079fc08-logo"  >
<g style=""  paint-order="stroke"   >
		<g transform="matrix(1 0 0 1 1.421085e-14 0)" id="tagline-dd22e9d9-d437-48d2-9140-0f423079fc08-logo-path-0"  >
<path style="stroke: none; stroke-width: 0; stroke-dasharray: none; stroke-linecap: butt; stroke-dashoffset: 0; stroke-linejoin: miter; stroke-miterlimit: 4; fill: rgb(248,250,252); fill-rule: nonzero; opacity: 1;"  paint-order="stroke"  transform=" translate(-10.215, 11.469999999999999)" d="M 11.91 0.37 C 16.24 0.37 18.43 -1.59 18.43 -5.4 L 18.43 -12.95 L 10.84 -12.95 L 10.84 -8.47 L 13.36 -8.47 L 13.36 -4.96 C 13.36 -4.59 13.21 -4.44 12.88 -4.44 L 7.92 -4.44 C 7.58 -4.44 7.4 -4.59 7.4 -4.96 L 7.4 -17.98 C 7.4 -18.35 7.58 -18.5 7.92 -18.5 L 17.95 -18.5 L 17.95 -23.31 L 8.47 -23.31 C 4.14 -23.31 2 -21.35 2 -17.54 L 2 -5.4 C 2 -1.59 4.14 0.37 8.47 0.37 Z" stroke-linecap="round" />
</g>
</g>
</g>
</svg>